<svg width="233" height="100" viewBox="0 0 233 100" fill="none" xmlns="http://www.w3.org/2000/svg">
<circle cx="142" cy="77" r="15" fill="#006FFF"/>
<path d="M122 29.5C122 36.4036 116.404 42 109.5 42C102.596 42 97 36.4036 97 29.5C97 22.5964 102.596 17 109.5 17C116.404 17 122 22.5964 122 29.5Z" fill="#2C88FF"/>
<circle cx="141" cy="10" r="10" fill="#529DFF"/>
<path d="M138.5 75.5L110 31" stroke="url(#paint0_linear_1003_73)" stroke-width="5"/>
<line x1="136.015" y1="13.2845" x2="109.015" y2="25.2845" stroke="url(#paint1_linear_1003_73)" stroke-width="5"/>
<path d="M141.5 20L143.5 19.5L144.5 62.5H140.5L141.5 20Z" fill="url(#paint2_linear_1003_73)"/>
<path d="M9.36 83.472C9.984 84.192 10.656 84.696 11.376 84.984C12.112 85.272 12.872 85.416 13.656 85.416C14.472 85.416 15.208 85.272 15.864 84.984C16.536 84.68 17.112 84.208 17.592 83.568C18.072 82.912 18.44 82.064 18.696 81.024C18.952 79.984 19.08 78.728 19.08 77.256C19.08 75.944 18.976 74.832 18.768 73.92C18.56 72.992 18.248 72.232 17.832 71.64C17.432 71.048 16.936 70.616 16.344 70.344C15.752 70.072 15.064 69.936 14.28 69.936C13.24 69.936 12.336 70.168 11.568 70.632C10.816 71.08 10.08 71.744 9.36 72.624V83.472ZM9.36 68.112C10.336 67.136 11.416 66.352 12.6 65.76C13.784 65.168 15.112 64.872 16.584 64.872C18.008 64.872 19.288 65.16 20.424 65.736C21.576 66.296 22.552 67.104 23.352 68.16C24.168 69.216 24.792 70.496 25.224 72C25.672 73.488 25.896 75.16 25.896 77.016C25.896 79.016 25.64 80.84 25.128 82.488C24.632 84.12 23.92 85.52 22.992 86.688C22.064 87.856 20.952 88.76 19.656 89.4C18.376 90.04 16.944 90.36 15.36 90.36C14.592 90.36 13.904 90.28 13.296 90.12C12.688 89.976 12.128 89.768 11.616 89.496C11.104 89.224 10.632 88.904 10.2 88.536C9.768 88.152 9.36 87.728 8.976 87.264L8.712 88.752C8.6 89.216 8.416 89.544 8.16 89.736C7.904 89.912 7.56 90 7.128 90H2.736V54.216H9.36V68.112ZM36.8299 54.216V90H30.2059V54.216H36.8299ZM64.0654 65.256V90H59.9854C59.1374 90 58.5934 89.616 58.3534 88.848L57.9214 87.12C57.4254 87.6 56.9134 88.04 56.3854 88.44C55.8574 88.84 55.2894 89.184 54.6814 89.472C54.0894 89.76 53.4414 89.984 52.7374 90.144C52.0494 90.304 51.2974 90.384 50.4814 90.384C49.1374 90.384 47.9374 90.152 46.8814 89.688C45.8414 89.224 44.9694 88.576 44.2654 87.744C43.5614 86.912 43.0254 85.92 42.6574 84.768C42.2894 83.616 42.1054 82.352 42.1054 80.976V65.256H48.7294V80.976C48.7294 82.352 49.0414 83.424 49.6654 84.192C50.3054 84.944 51.2494 85.32 52.4974 85.32C53.4254 85.32 54.2974 85.12 55.1134 84.72C55.9294 84.304 56.7054 83.744 57.4414 83.04V65.256H64.0654ZM85.2289 74.712C85.2289 74.024 85.1329 73.368 84.9409 72.744C84.7649 72.12 84.4769 71.568 84.0769 71.088C83.6769 70.608 83.1729 70.232 82.5649 69.96C81.9569 69.672 81.2289 69.528 80.3809 69.528C78.7969 69.528 77.5569 69.976 76.6609 70.872C75.7649 71.768 75.1809 73.048 74.9089 74.712H85.2289ZM74.8129 78.648C75.0209 80.968 75.6769 82.664 76.7809 83.736C77.9009 84.808 79.3569 85.344 81.1489 85.344C82.0609 85.344 82.8449 85.24 83.5009 85.032C84.1729 84.808 84.7569 84.568 85.2529 84.312C85.7649 84.04 86.2209 83.8 86.6209 83.592C87.0369 83.368 87.4449 83.256 87.8449 83.256C88.3569 83.256 88.7569 83.448 89.0449 83.832L90.9649 86.232C90.2609 87.048 89.4849 87.728 88.6369 88.272C87.7889 88.8 86.9089 89.224 85.9969 89.544C85.0849 89.848 84.1649 90.056 83.2369 90.168C82.3089 90.296 81.4129 90.36 80.5489 90.36C78.8209 90.36 77.2049 90.08 75.7009 89.52C74.2129 88.944 72.9089 88.104 71.7889 87C70.6849 85.88 69.8129 84.496 69.1729 82.848C68.5329 81.2 68.2129 79.288 68.2129 77.112C68.2129 75.432 68.4849 73.848 69.0289 72.36C69.5889 70.872 70.3889 69.576 71.4289 68.472C72.4689 67.368 73.7329 66.496 75.2209 65.856C76.7089 65.2 78.3889 64.872 80.2609 64.872C81.8449 64.872 83.3009 65.128 84.6289 65.64C85.9729 66.136 87.1249 66.864 88.0849 67.824C89.0609 68.784 89.8129 69.968 90.3409 71.376C90.8849 72.768 91.1569 74.36 91.1569 76.152C91.1569 76.648 91.1329 77.056 91.0849 77.376C91.0369 77.696 90.9569 77.952 90.8449 78.144C90.7329 78.336 90.5809 78.472 90.3889 78.552C90.1969 78.616 89.9489 78.648 89.6449 78.648H74.8129ZM107.075 71.664C108.243 71.664 109.251 71.52 110.099 71.232C110.947 70.928 111.643 70.52 112.187 70.008C112.731 69.48 113.131 68.864 113.387 68.16C113.643 67.456 113.771 66.688 113.771 65.856C113.771 64.208 113.219 62.928 112.115 62.016C111.027 61.104 109.363 60.648 107.123 60.648H103.379V71.664H107.075ZM123.947 90H117.443C116.227 90 115.347 89.536 114.803 88.608L108.179 77.928C107.907 77.512 107.603 77.208 107.267 77.016C106.947 76.824 106.467 76.728 105.827 76.728H103.379V90H96.1793V55.176H107.123C109.555 55.176 111.635 55.432 113.363 55.944C115.091 56.44 116.507 57.136 117.611 58.032C118.715 58.928 119.523 60 120.035 61.248C120.547 62.48 120.803 63.84 120.803 65.328C120.803 66.48 120.635 67.576 120.299 68.616C119.979 69.64 119.507 70.576 118.883 71.424C118.259 72.272 117.491 73.024 116.579 73.68C115.667 74.336 114.627 74.864 113.459 75.264C113.923 75.52 114.355 75.832 114.755 76.2C115.155 76.552 115.515 76.976 115.835 77.472L123.947 90ZM141.719 64.872C143.575 64.872 145.263 65.168 146.783 65.76C148.303 66.352 149.607 67.2 150.695 68.304C151.783 69.392 152.623 70.72 153.215 72.288C153.807 73.856 154.103 75.624 154.103 77.592C154.103 79.56 153.807 81.336 153.215 82.92C152.623 84.488 151.783 85.824 150.695 86.928C149.607 88.032 148.303 88.88 146.783 89.472C145.263 90.064 143.575 90.36 141.719 90.36C139.847 90.36 138.143 90.064 136.607 89.472C135.087 88.88 133.783 88.032 132.695 86.928C131.607 85.824 130.759 84.488 130.151 82.92C129.559 81.336 129.263 79.56 129.263 77.592C129.263 75.624 129.559 73.856 130.151 72.288C130.759 70.72 131.607 69.392 132.695 68.304C133.783 67.2 135.087 66.352 136.607 65.76C138.143 65.168 139.847 64.872 141.719 64.872ZM141.719 85.392C143.607 85.392 145.007 84.744 145.919 83.448C146.831 82.136 147.287 80.192 147.287 77.616C147.287 75.056 146.831 73.128 145.919 71.832C145.007 70.52 143.607 69.864 141.719 69.864C139.783 69.864 138.359 70.52 137.447 71.832C136.535 73.128 136.079 75.056 136.079 77.616C136.079 80.192 136.535 82.136 137.447 83.448C138.359 84.744 139.783 85.392 141.719 85.392ZM185.742 65.256V90H181.662C180.814 90 180.27 89.616 180.03 88.848L179.598 87.12C179.102 87.6 178.59 88.04 178.062 88.44C177.534 88.84 176.966 89.184 176.358 89.472C175.766 89.76 175.118 89.984 174.414 90.144C173.726 90.304 172.974 90.384 172.158 90.384C170.814 90.384 169.614 90.152 168.558 89.688C167.518 89.224 166.646 88.576 165.942 87.744C165.238 86.912 164.702 85.92 164.334 84.768C163.966 83.616 163.782 82.352 163.782 80.976V65.256H170.406V80.976C170.406 82.352 170.718 83.424 171.342 84.192C171.982 84.944 172.926 85.32 174.174 85.32C175.102 85.32 175.974 85.12 176.79 84.72C177.606 84.304 178.382 83.744 179.118 83.04V65.256H185.742ZM199.753 90.384C198.633 90.384 197.641 90.224 196.777 89.904C195.913 89.568 195.185 89.096 194.593 88.488C194.001 87.88 193.553 87.144 193.249 86.28C192.945 85.416 192.793 84.44 192.793 83.352V70.008H190.465C190.113 70.008 189.809 69.896 189.553 69.672C189.313 69.448 189.193 69.112 189.193 68.664V66.072L193.153 65.352L194.497 58.944C194.673 58.224 195.161 57.864 195.961 57.864H199.417V65.4H205.801V70.008H199.417V82.92C199.417 83.608 199.577 84.152 199.897 84.552C200.233 84.952 200.705 85.152 201.313 85.152C201.633 85.152 201.905 85.12 202.129 85.056C202.353 84.976 202.545 84.896 202.705 84.816C202.865 84.72 203.009 84.64 203.137 84.576C203.281 84.496 203.425 84.456 203.569 84.456C203.761 84.456 203.921 84.504 204.049 84.6C204.177 84.68 204.305 84.824 204.433 85.032L206.425 88.2C205.513 88.92 204.481 89.464 203.329 89.832C202.177 90.2 200.985 90.384 199.753 90.384ZM224.811 74.712C224.811 74.024 224.715 73.368 224.523 72.744C224.347 72.12 224.059 71.568 223.659 71.088C223.259 70.608 222.755 70.232 222.147 69.96C221.539 69.672 220.811 69.528 219.963 69.528C218.379 69.528 217.139 69.976 216.243 70.872C215.347 71.768 214.763 73.048 214.491 74.712H224.811ZM214.395 78.648C214.603 80.968 215.259 82.664 216.363 83.736C217.483 84.808 218.939 85.344 220.731 85.344C221.643 85.344 222.427 85.24 223.083 85.032C223.755 84.808 224.339 84.568 224.835 84.312C225.347 84.04 225.803 83.8 226.203 83.592C226.619 83.368 227.027 83.256 227.427 83.256C227.939 83.256 228.339 83.448 228.627 83.832L230.547 86.232C229.843 87.048 229.067 87.728 228.219 88.272C227.371 88.8 226.491 89.224 225.579 89.544C224.667 89.848 223.747 90.056 222.819 90.168C221.891 90.296 220.995 90.36 220.131 90.36C218.403 90.36 216.787 90.08 215.283 89.52C213.795 88.944 212.491 88.104 211.371 87C210.267 85.88 209.395 84.496 208.755 82.848C208.115 81.2 207.795 79.288 207.795 77.112C207.795 75.432 208.067 73.848 208.611 72.36C209.171 70.872 209.971 69.576 211.011 68.472C212.051 67.368 213.315 66.496 214.803 65.856C216.291 65.2 217.971 64.872 219.843 64.872C221.427 64.872 222.883 65.128 224.211 65.64C225.555 66.136 226.707 66.864 227.667 67.824C228.643 68.784 229.395 69.968 229.923 71.376C230.467 72.768 230.739 74.36 230.739 76.152C230.739 76.648 230.715 77.056 230.667 77.376C230.619 77.696 230.539 77.952 230.427 78.144C230.315 78.336 230.163 78.472 229.971 78.552C229.779 78.616 229.531 78.648 229.227 78.648H214.395Z" fill="#006FFF"/>
<defs>
<linearGradient id="paint0_linear_1003_73" x1="139.044" y1="80.5149" x2="102.252" y2="44.4519" gradientUnits="userSpaceOnUse">
<stop stop-color="#006FFF"/>
<stop offset="1" stop-color="#2C88FF"/>
</linearGradient>
<linearGradient id="paint1_linear_1003_73" x1="108" y1="23" x2="135" y2="11" gradientUnits="userSpaceOnUse">
<stop stop-color="#2C88FF"/>
<stop offset="1" stop-color="#529DFF"/>
</linearGradient>
<linearGradient id="paint2_linear_1003_73" x1="142.5" y1="19.5" x2="142.5" y2="62.5" gradientUnits="userSpaceOnUse">
<stop stop-color="#529DFF"/>
<stop offset="1" stop-color="#006FFF"/>
</linearGradient>
</defs>
</svg>
